<?xml version="1.0"?>
<svg xmlns="http://www.w3.org/2000/svg" id="Out_line" data-name="Out line" viewBox="0 0 512 512" width="512" height="512"><path d="M406.45,420.46A88.813,88.813,0,0,0,320,352a16.02116,16.02116,0,0,1-16-16V321.76A88.44788,88.44788,0,0,0,337.93994,280H344a40,40,0,0,0,0-80V139.67993l33.53-28.74a31.99634,31.99634,0,0,0,1.8-46.91992A162.83169,162.83169,0,0,0,263.40991,16H248.59009A162.83169,162.83169,0,0,0,132.66992,64.02a31.99634,31.99634,0,0,0,1.8,46.91992l33.53,28.74V200a40,40,0,0,0,0,80h6.06006A88.44788,88.44788,0,0,0,208,321.76V336a15.99537,15.99537,0,0,1-16,16,88.47293,88.47293,0,0,0-86.44995,68.47l-17.34009,73.7L103.79,497.83008l17.33984-73.7002A72.53,72.53,0,0,1,192,368a31.394,31.394,0,0,0,4.45-.31006A86.81766,86.81766,0,0,0,220.77,383.79l6.46-14.64014A70.45617,70.45617,0,0,1,212.60986,360.46a26.75359,26.75359,0,0,0,2.02-1.83984,31.85965,31.85965,0,0,0,4.93018-6.3501A24.03187,24.03187,0,0,1,240,376v9.58008L204.8501,400.6499A7.99874,7.99874,0,0,0,200,408v88h16V413.28l51.1499-21.92993A7.999,7.999,0,0,0,272,384v-8a24.02482,24.02482,0,0,1,20.46-23.73,32.433,32.433,0,0,0,6.93018,8.18994A70.45617,70.45617,0,0,1,284.77,369.1499L291.23,383.79a86.81766,86.81766,0,0,0,24.32007-16.1001A32.67915,32.67915,0,0,0,320,368a72.80541,72.80541,0,0,1,70.87012,56.12988L408.21,497.83008,423.79,494.16992ZM328,176H184V142.02a269.52112,269.52112,0,0,1,144,0Zm40,64a24.03189,24.03189,0,0,1-24,24h-1.48A86.8276,86.8276,0,0,0,344,248V216A24.03189,24.03189,0,0,1,368,240ZM144.87988,98.79a16.00851,16.00851,0,0,1-.8999-23.46A146.98878,146.98878,0,0,1,248.59009,32h14.81982A146.98878,146.98878,0,0,1,368.02,75.33008a16.00851,16.00851,0,0,1-.8999,23.46l-33.04,28.31982q-10.63514-3.01464-21.41016-5.2A27.32346,27.32346,0,0,1,329.25,102.51l17.72-7.08008L341.03,80.57007l-17.72,7.08984a43.15665,43.15665,0,0,0-26.41016,31.52q-8.39977-1.2301-16.84985-1.92993A78.60213,78.60213,0,0,1,291.21,79.54l11.6499-19.41992-13.71972-8.24024L277.49,71.30005a94.61989,94.61989,0,0,0-13.41992,45.05005q-13.69519-.405-27.37012.54a62.794,62.794,0,0,0-42.76-36.65015l-3.87988,15.52a46.84453,46.84453,0,0,1,29.68994,22.79,284.99415,284.99415,0,0,0-41.83008,8.55981ZM168,264a24,24,0,0,1,0-48v32a86.8276,86.8276,0,0,0,1.48,16Zm88,112a40.06024,40.06024,0,0,0-32.02-39.19995c.02-.26.02-.53.02-.8v-6.01a86.388,86.388,0,0,0,14.40991,4.25l3.18018-15.67993a71.26367,71.26367,0,0,1-21.48023-8.13013c-.03979-.02-.06982-.03979-.10986-.05981A72.3124,72.3124,0,0,1,184,248V192H328v56a72.3124,72.3124,0,0,1-36,62.37012c-.04.02-.07007.03979-.10986.05981a71.26367,71.26367,0,0,1-21.48023,8.13013L273.59009,334.24A86.388,86.388,0,0,0,288,329.99V336c0,.27,0,.54.01.8A40.06966,40.06966,0,0,0,256,376Z"/><circle cx="240" cy="432" r="8"/><circle cx="216" cy="232" r="8"/><circle cx="296" cy="232" r="8"/><circle cx="280" cy="432" r="8"/><circle cx="240" cy="472" r="8"/><circle cx="280" cy="472" r="8"/><rect x="152" y="456" width="16" height="40"/><rect x="344" y="456" width="16" height="40"/><path d="M240,208a8.00039,8.00039,0,0,0-8-8H200a8,8,0,0,0,0,16h32A8.00039,8.00039,0,0,0,240,208Z"/><path d="M280,216h32a8,8,0,0,0,0-16H280a8,8,0,0,0,0,16Z"/><path d="M250.34277,253.65723a8.00053,8.00053,0,0,0,11.31446-11.31446l-4.50391-4.5039,6.43652-19.3086a8.0005,8.0005,0,0,0-15.17968-5.06054l-8,24a8.00185,8.00185,0,0,0,1.93261,8.1875Z"/><path d="M285.65723,274.34277a8.003,8.003,0,0,0-11.31446,0,25.96815,25.96815,0,0,1-36.68554,0,8.00053,8.00053,0,0,0-11.31446,11.31446,41.9895,41.9895,0,0,0,59.31446,0A8.00122,8.00122,0,0,0,285.65723,274.34277Z"/></svg>
